<svg width="311" height="100" viewBox="0 0 311 100" fill="none" xmlns="http://www.w3.org/2000/svg">
<path d="M299.188 88.2014V71.4065H310.345V73.8884H301.983V78.3461H309.694V80.8521H301.983V85.7195H310.345V88.2014H299.188Z" fill="black"/>
<path d="M278.177 88.2014V73.8884H272.828V71.4065H286.322V73.8884H280.997V88.2014H278.177Z" fill="black"/>
<path d="M253.763 88.5387C251.691 88.5387 250.109 88.0006 249.017 86.9243C247.94 85.848 247.402 84.2496 247.402 82.1292V71.4065H250.197V81.8159C250.197 82.7316 250.302 83.5027 250.51 84.1291C250.735 84.7396 251.105 85.2054 251.619 85.5267C252.149 85.8319 252.864 85.9845 253.763 85.9845C254.663 85.9845 255.37 85.8239 255.884 85.5026C256.414 85.1813 256.791 84.7155 257.016 84.105C257.241 83.4946 257.354 82.7316 257.354 81.8159V71.4065H260.125V82.0087C260.125 84.1773 259.587 85.8078 258.51 86.9002C257.434 87.9925 255.852 88.5387 253.763 88.5387Z" fill="black"/>
<path d="M223.268 88.2014V71.4065H228.641C230.504 71.4065 231.918 71.8081 232.882 72.6113C233.846 73.4145 234.328 74.6193 234.328 76.2257C234.328 77.8321 233.838 79.061 232.858 79.9124C231.894 80.7477 230.488 81.1653 228.641 81.1653H226.039V88.2014H223.268ZM226.039 78.6835H228.352C229.348 78.6835 230.127 78.4987 230.689 78.1293C231.251 77.7598 231.532 77.1413 231.532 76.2739C231.532 75.4225 231.259 74.8121 230.713 74.4426C230.183 74.0731 229.396 73.8884 228.352 73.8884H226.039V78.6835Z" fill="black"/>
<path d="M191.928 88.2014V71.4065H196.025L200.723 83.9605H200.217L204.94 71.4065H209.012V88.2014H206.217V74.6594L206.458 74.7076L201.832 86.7315H199.109L194.458 74.7076L194.723 74.6594V88.2014H191.928Z" fill="black"/>
<path d="M170.314 88.5384C168.739 88.5384 167.358 88.177 166.169 87.4541C164.98 86.7312 164.049 85.7111 163.374 84.3939C162.715 83.0767 162.386 81.5506 162.386 79.8157C162.386 78.0647 162.715 76.5306 163.374 75.2133C164.049 73.8961 164.98 72.876 166.169 72.1532C167.358 71.4303 168.739 71.0688 170.314 71.0688C171.92 71.0688 173.318 71.4303 174.506 72.1532C175.711 72.876 176.643 73.8961 177.301 75.2133C177.976 76.5145 178.313 78.0486 178.313 79.8157C178.313 81.5666 177.976 83.1008 177.301 84.418C176.627 85.7192 175.687 86.7312 174.482 87.4541C173.293 88.177 171.904 88.5384 170.314 88.5384ZM170.314 85.8878C171.39 85.8878 172.314 85.6389 173.085 85.1409C173.856 84.6429 174.45 83.9441 174.868 83.0445C175.301 82.1289 175.518 81.0526 175.518 79.8157C175.518 78.5627 175.301 77.4864 174.868 76.5868C174.45 75.6712 173.856 74.9644 173.085 74.4664C172.314 73.9684 171.39 73.7194 170.314 73.7194C169.269 73.7194 168.362 73.9684 167.591 74.4664C166.82 74.9483 166.217 75.6471 165.784 76.5627C165.366 77.4623 165.157 78.5466 165.157 79.8157C165.157 81.0687 165.366 82.153 165.784 83.0686C166.201 83.9682 166.796 84.667 167.567 85.165C168.354 85.6469 169.269 85.8878 170.314 85.8878Z" fill="black"/>
<path d="M142.41 88.5384C140.836 88.5384 139.454 88.177 138.265 87.4541C137.077 86.7312 136.145 85.7111 135.47 84.3939C134.812 83.0767 134.482 81.5425 134.482 79.7916C134.482 78.0406 134.812 76.5145 135.47 75.2133C136.145 73.8961 137.077 72.876 138.265 72.1532C139.454 71.4303 140.836 71.0688 142.41 71.0688C144.161 71.0688 145.671 71.5026 146.94 72.37C148.225 73.2375 149.149 74.4423 149.711 75.9844L147.109 76.9242C146.723 75.9121 146.129 75.125 145.326 74.5628C144.522 74.0005 143.551 73.7194 142.41 73.7194C141.366 73.7194 140.458 73.9684 139.687 74.4664C138.916 74.9644 138.314 75.6631 137.88 76.5627C137.462 77.4623 137.253 78.5386 137.253 79.7916C137.253 81.0446 137.462 82.1289 137.88 83.0445C138.314 83.9441 138.916 84.6429 139.687 85.1409C140.458 85.6389 141.366 85.8878 142.41 85.8878C143.551 85.8878 144.522 85.6067 145.326 85.0445C146.129 84.4662 146.723 83.6791 147.109 82.6831L149.711 83.6228C149.149 85.1328 148.225 86.3296 146.94 87.2131C145.671 88.0966 144.161 88.5384 142.41 88.5384Z" fill="black"/>
<path d="M290.896 52.8161C287.068 52.8161 283.71 51.9374 280.82 50.1799C277.93 48.4225 275.665 45.9426 274.024 42.7401C272.423 39.5377 271.623 35.8276 271.623 31.6097C271.623 27.3528 272.423 23.6231 274.024 20.4207C275.665 17.2183 277.93 14.7383 280.82 12.9809C283.71 11.2234 287.068 10.3447 290.896 10.3447C294.801 10.3447 298.199 11.2234 301.089 12.9809C304.018 14.7383 306.283 17.2183 307.884 20.4207C309.525 23.5841 310.345 27.3137 310.345 31.6097C310.345 35.8666 309.525 39.5963 307.884 42.7987C306.244 45.9621 303.959 48.4225 301.03 50.1799C298.14 51.9374 294.762 52.8161 290.896 52.8161ZM290.896 46.3722C293.512 46.3722 295.758 45.7668 297.633 44.5561C299.507 43.3455 300.952 41.6466 301.968 39.4596C303.022 37.2335 303.549 34.6169 303.549 31.6097C303.549 28.5635 303.022 25.9469 301.968 23.7598C300.952 21.5337 299.507 19.8154 297.633 18.6047C295.758 17.394 293.512 16.7887 290.896 16.7887C288.357 16.7887 286.151 17.394 284.276 18.6047C282.402 19.7763 280.937 21.4752 279.883 23.7012C278.867 25.8883 278.359 28.5244 278.359 31.6097C278.359 34.6559 278.867 37.2921 279.883 39.5182C280.898 41.7052 282.343 43.4041 284.218 44.6147C286.131 45.7864 288.357 46.3722 290.896 46.3722Z" fill="black"/>
<path d="M227.816 51.9963V11.1652H239.532C246.25 11.1652 251.463 12.9812 255.174 16.6132C258.884 20.2062 260.739 25.3028 260.739 31.9029C260.739 38.3859 258.903 43.3653 255.232 46.8411C251.6 50.2779 246.347 51.9963 239.474 51.9963H227.816ZM234.612 45.7867H238.829C241.993 45.7867 244.707 45.3571 246.972 44.4979C249.237 43.5996 250.956 42.1156 252.127 40.0457C253.299 37.9758 253.885 35.1835 253.885 31.6686C253.885 28.1537 253.299 25.3613 252.127 23.2915C250.995 21.1825 249.335 19.679 247.148 18.7807C245 17.8434 242.422 17.3748 239.415 17.3748H234.612V45.7867Z" fill="black"/>
<path d="M198.513 52.8164C193.475 52.8164 189.628 51.5081 186.973 48.8915C184.356 46.2748 183.048 42.3889 183.048 37.2338V11.1652H189.843V36.4722C189.843 38.6983 190.097 40.5729 190.605 42.096C191.151 43.5801 192.05 44.7127 193.299 45.4938C194.588 46.2358 196.326 46.6068 198.513 46.6068C200.7 46.6068 202.418 46.2163 203.668 45.4352C204.957 44.6541 205.875 43.5215 206.422 42.0375C206.968 40.5534 207.242 38.6983 207.242 36.4722V11.1652H213.978V36.9409C213.978 42.2132 212.67 46.1772 210.054 48.8329C207.437 51.4886 203.59 52.8164 198.513 52.8164Z" fill="black"/>
<path d="M153.756 52.8161C149.928 52.8161 146.57 51.9374 143.68 50.1799C140.79 48.4225 138.525 45.9426 136.884 42.7401C135.283 39.5377 134.482 35.808 134.482 31.5511C134.482 27.2942 135.283 23.5841 136.884 20.4207C138.525 17.2183 140.79 14.7383 143.68 12.9809C146.57 11.2234 149.928 10.3447 153.756 10.3447C158.013 10.3447 161.684 11.3992 164.769 13.5081C167.893 15.617 170.139 18.5461 171.506 22.2953L165.179 24.58C164.242 22.1195 162.797 20.2059 160.844 18.839C158.891 17.4721 156.528 16.7887 153.756 16.7887C151.217 16.7887 149.011 17.394 147.136 18.6047C145.261 19.8154 143.797 21.5142 142.742 23.7012C141.727 25.8883 141.219 28.5049 141.219 31.5511C141.219 34.5973 141.727 37.2335 142.742 39.4596C143.797 41.6466 145.261 43.3455 147.136 44.5561C149.011 45.7668 151.217 46.3722 153.756 46.3722C156.528 46.3722 158.891 45.6887 160.844 44.3218C162.797 42.9159 164.242 41.0022 165.179 38.5809L171.506 40.8655C170.139 44.5366 167.893 47.4462 164.769 49.5941C161.684 51.7421 158.013 52.8161 153.756 52.8161Z" fill="black"/>
<path d="M49.9999 0C40.1108 0 30.4439 2.93245 22.2215 8.42656C13.999 13.9206 7.59041 21.7295 3.80603 30.8658C0.0216653 40.0022 -0.9685 50.0555 0.960756 59.7546C2.89001 69.4535 7.65207 78.3629 14.6446 85.3555C21.6372 92.348 30.5463 97.1103 40.2454 99.0393C49.9444 100.968 59.9977 99.9786 69.1337 96.1939C78.2701 92.4099 86.0793 86.0009 91.5729 77.7786C97.0673 69.5563 100 59.8891 100 50.0001C99.9852 36.7436 94.7128 24.0341 85.339 14.6604C75.966 5.28665 63.2563 0.014237 49.9999 0ZM49.9999 72.7245C45.5038 72.7245 41.1087 71.3912 37.3706 68.8927C33.6324 66.395 30.7189 62.8445 28.9986 58.6905C27.2784 54.5366 26.8287 49.9658 27.7063 45.5562C28.5839 41.1467 30.7495 37.0965 33.9291 33.9177C37.1088 30.739 41.1596 28.5746 45.5694 27.6983C49.9792 26.822 54.5498 27.2731 58.7033 28.9946C62.8566 30.7161 66.4063 33.6306 68.9031 37.3696C71.4001 41.1086 72.732 45.504 72.7307 50.0001C72.7233 56.0259 70.3264 61.8027 66.0648 66.063C61.8032 70.3235 56.0257 72.7191 49.9999 72.7245ZM5.19027 50.0001C5.20298 38.5675 9.57979 27.5711 17.4268 19.2568C25.2737 10.9425 35.9988 5.93753 47.4114 5.26422V22.22C40.4858 22.8581 34.0484 26.0605 29.3615 31.199C24.6747 36.3376 22.0765 43.0417 22.0765 49.9967C22.0765 56.9517 24.6747 63.6558 29.3615 68.7945C34.0484 73.9327 40.4858 77.1352 47.4114 77.7732V94.7288C35.9994 94.0578 25.2743 89.0541 17.4272 80.741C9.58013 72.4273 5.20308 61.4319 5.19027 50.0001ZM52.595 94.7288V77.7732C59.5206 77.1352 65.958 73.9327 70.6451 68.7945C75.332 63.6558 77.9299 56.9517 77.9299 49.9967C77.9299 43.0417 75.332 36.3376 70.6451 31.199C65.958 26.0605 59.5206 22.8581 52.595 22.22V5.26422C64.004 5.93531 74.7255 10.9404 82.5656 19.2557C90.4064 27.571 94.7733 38.5679 94.7733 49.9967C94.7733 61.4255 90.4064 72.4226 82.5656 80.7377C74.7255 89.0528 64.004 94.0578 52.595 94.7288Z" fill="black"/>
</svg>
